<svg id="SvgjsSvg1013" width="288" height="288" xmlns="http://www.w3.org/2000/svg" version="1.1" xmlns:xlink="http://www.w3.org/1999/xlink" xmlns:svgjs="http://svgjs.com/svgjs"><defs id="SvgjsDefs1014"></defs><g id="SvgjsG1015"><svg xmlns="http://www.w3.org/2000/svg" xmlns:svgjs="http://svgjs.com/svgjs" xmlns:xlink="http://www.w3.org/1999/xlink" width="288" height="288"><svg xmlns="http://www.w3.org/2000/svg" width="288" height="288" viewBox="0 0 24 24"><path fill="#06cc64" d="M10.3125,16.09375a.99676.99676,0,0,1-.707-.293L6.793,12.98828A.99989.99989,0,0,1,8.207,11.57422l2.10547,2.10547L15.793,8.19922A.99989.99989,0,0,1,17.207,9.61328l-6.1875,6.1875A.99676.99676,0,0,1,10.3125,16.09375Z" class="color6563ff svgShape color06cc64" opacity=".99"></path><path fill="#97fbb6" d="M12,2A10,10,0,1,0,22,12,10.01146,10.01146,0,0,0,12,2Zm5.207,7.61328-6.1875,6.1875a.99963.99963,0,0,1-1.41406,0L6.793,12.98828A.99989.99989,0,0,1,8.207,11.57422l2.10547,2.10547L15.793,8.19922A.99989.99989,0,0,1,17.207,9.61328Z" class="colora2a1ff svgShape colore7faf0"></path></svg></svg></g></svg>