<?xml version="1.0" encoding="UTF-8" ?>
<!DOCTYPE svg PUBLIC "-//W3C//DTD SVG 1.1//EN" "http://www.w3.org/Graphics/SVG/1.1/DTD/svg11.dtd">
<svg width="1044pt" height="201pt" viewBox="0 0 1044 201" version="1.1" xmlns="http://www.w3.org/2000/svg">
<g id="#194f8cff">
<path fill="#194f8c" opacity="1.00" d=" M 132.02 168.54 C 137.86 168.48 143.70 168.37 149.53 168.67 C 144.30 174.81 138.27 180.21 132.64 185.98 L 131.98 185.99 C 132.03 180.18 131.96 174.36 132.02 168.54 Z" />
</g>
<g id="#3387c5ff">
<path fill="#3387c5" opacity="1.00" d=" M 33.24 8.21 C 37.23 7.15 42.55 7.09 45.24 10.80 C 47.60 13.28 46.93 16.89 47.02 20.00 C 46.82 24.58 47.39 29.22 46.70 33.77 C 44.06 41.62 30.93 41.62 28.30 33.77 C 27.61 27.87 28.15 21.87 28.00 15.93 C 27.79 12.60 30.15 9.33 33.24 8.21 Z" />
<path fill="#3387c5" opacity="1.00" d=" M 112.34 8.46 C 117.36 6.46 124.63 7.57 126.47 13.38 C 127.12 17.90 126.56 22.50 126.76 27.05 C 126.65 30.29 127.41 34.26 124.67 36.68 C 120.15 41.54 110.46 40.39 108.09 33.89 C 107.33 27.98 107.92 21.97 107.75 16.02 C 107.52 12.87 109.58 9.84 112.34 8.46 Z" />
<path fill="#3387c5" opacity="1.00" d=" M 5.06 29.06 C 11.18 28.96 17.30 28.94 23.42 29.07 C 23.23 33.44 24.20 38.28 27.99 40.96 C 31.94 44.55 37.73 44.60 42.65 43.50 C 48.68 41.51 52.36 35.34 51.58 29.07 C 68.76 28.92 85.94 29.01 103.12 29.02 C 103.22 32.32 103.30 35.89 105.45 38.60 C 110.80 45.99 123.25 46.07 128.83 38.92 C 131.15 36.16 131.29 32.45 131.37 29.02 C 137.56 28.99 143.75 28.94 149.94 29.06 C 150.09 81.38 149.95 133.69 149.99 186.01 L 149.31 186.00 C 143.76 186.01 138.20 185.99 132.64 185.98 C 138.27 180.21 144.30 174.81 149.53 168.67 C 143.70 168.37 137.86 168.48 132.02 168.54 C 131.96 174.36 132.03 180.18 131.98 185.99 C 89.87 186.01 47.77 185.99 5.66 186.01 L 5.01 186.01 C 5.03 133.69 4.92 81.38 5.06 29.06 M 139.11 70.40 C 136.56 71.63 134.28 73.29 132.18 75.17 C 110.11 93.48 88.08 111.84 65.98 130.12 C 61.80 125.24 57.71 120.29 53.45 115.47 C 47.08 118.91 40.67 122.26 34.26 125.61 C 45.74 135.29 57.23 144.97 68.76 154.61 C 92.19 126.53 115.80 98.59 139.11 70.40 Z" />
</g>
<g id="#ffffffff">
<path fill="#ffffff" opacity="1.00" d=" M 547.51 37.00 C 554.75 37.00 561.99 37.00 569.24 37.00 C 569.24 69.83 569.25 102.66 569.24 135.49 C 562.24 135.50 555.25 135.49 548.26 135.49 C 548.25 132.02 548.24 128.56 548.26 125.09 C 544.52 130.91 538.98 135.74 532.18 137.50 C 523.63 139.22 514.06 137.43 507.55 131.35 C 501.09 125.82 498.02 117.32 497.25 109.05 C 496.27 99.22 497.67 88.63 503.67 80.50 C 507.84 74.01 515.32 69.89 523.00 69.54 C 527.91 69.40 533.11 69.19 537.65 71.38 C 542.01 73.88 545.62 77.58 548.21 81.87 C 547.79 79.26 547.44 76.63 547.49 73.98 C 547.53 61.65 547.49 49.33 547.51 37.00 M 528.33 88.47 C 519.28 91.86 517.61 103.93 521.12 111.89 C 524.69 119.79 535.56 122.25 542.58 117.57 C 551.30 111.49 551.54 97.13 543.67 90.27 C 539.30 87.10 533.35 87.18 528.33 88.47 Z" />
<path fill="#ffffff" opacity="1.00" d=" M 748.43 39.59 C 753.26 38.59 759.37 38.99 762.35 43.53 C 766.83 48.94 765.54 57.86 759.65 61.72 C 753.17 67.11 742.50 62.80 740.49 54.94 C 738.42 48.79 742.30 41.50 748.43 39.59 Z" />
<path fill="#ffffff" opacity="1.00" d=" M 938.46 39.65 C 942.49 38.85 947.24 38.73 950.64 41.42 C 953.67 44.04 955.62 48.05 955.25 52.11 C 955.08 58.78 948.61 64.83 941.87 64.03 C 936.12 63.75 931.01 58.74 930.35 53.05 C 929.40 47.44 933.13 41.48 938.46 39.65 Z" />
<path fill="#ffffff" opacity="1.00" d=" M 204.50 42.56 C 215.06 42.43 225.62 42.54 236.18 42.51 C 246.99 73.48 257.67 104.50 268.46 135.48 C 260.04 135.51 251.63 135.49 243.21 135.49 C 241.59 129.92 240.11 124.30 238.44 118.74 C 226.48 118.76 214.51 118.74 202.54 118.75 C 200.90 124.31 199.40 129.92 197.79 135.49 C 189.37 135.49 180.95 135.51 172.54 135.48 C 183.22 104.52 193.88 73.55 204.50 42.56 M 220.43 57.78 C 217.18 72.34 212.05 86.40 208.06 100.76 C 216.44 100.75 224.82 100.76 233.20 100.75 C 228.90 86.44 224.11 72.27 220.43 57.78 Z" />
<path fill="#ffffff" opacity="1.00" d=" M 660.51 42.51 C 670.01 42.59 679.52 42.28 689.01 42.75 C 696.89 43.00 705.03 41.93 712.63 44.57 C 720.17 46.44 726.85 52.36 728.61 60.07 C 729.84 65.75 729.58 72.21 726.24 77.15 C 722.80 81.66 717.41 84.24 712.03 85.63 C 717.34 85.93 722.88 87.49 726.75 91.34 C 737.42 101.89 735.41 122.55 722.31 130.27 C 714.95 134.56 706.19 134.75 697.93 135.42 C 685.46 135.60 672.98 135.45 660.51 135.49 C 660.50 104.50 660.50 73.50 660.51 42.51 M 684.00 60.97 C 684.00 67.23 683.99 73.49 684.01 79.76 C 690.34 79.61 697.37 80.66 702.96 76.97 C 707.26 72.57 705.69 62.99 699.05 61.89 C 694.11 60.87 689.01 61.25 684.00 60.97 M 684.01 96.24 C 683.99 103.00 684.00 109.75 684.00 116.50 C 690.68 116.19 697.68 117.48 704.09 115.01 C 712.09 112.31 710.70 97.93 702.20 96.99 C 696.19 96.14 690.07 96.30 684.01 96.24 Z" />
<path fill="#ffffff" opacity="1.00" d=" M 850.76 42.51 C 864.53 42.35 878.29 42.73 892.06 42.81 C 900.12 43.06 908.89 45.26 914.41 51.55 C 919.71 57.40 920.68 66.21 918.35 73.55 C 915.94 80.32 908.84 83.90 902.32 85.64 C 908.24 85.93 914.47 87.96 918.27 92.76 C 924.31 99.59 924.99 109.75 922.30 118.15 C 919.88 125.50 913.52 131.10 906.08 133.02 C 896.94 135.37 887.39 135.59 878.01 135.49 C 868.92 135.49 859.84 135.50 850.76 135.49 C 850.75 104.50 850.75 73.50 850.76 42.51 M 874.24 60.98 C 874.25 67.23 874.23 73.49 874.25 79.75 C 880.39 79.65 887.02 80.54 892.63 77.40 C 897.75 73.35 896.12 62.90 889.18 61.85 C 884.26 60.90 879.21 61.23 874.24 60.98 M 874.25 96.25 C 874.23 103.00 874.25 109.75 874.24 116.49 C 880.85 116.21 887.74 117.43 894.10 115.11 C 902.17 112.64 901.15 98.47 892.88 97.09 C 886.74 96.09 880.45 96.33 874.25 96.25 Z" />
<path fill="#ffffff" opacity="1.00" d=" M 139.11 70.40 C 115.80 98.59 92.19 126.53 68.76 154.61 C 57.23 144.97 45.74 135.29 34.26 125.61 C 40.67 122.26 47.08 118.91 53.45 115.47 C 57.71 120.29 61.80 125.24 65.98 130.12 C 88.08 111.84 110.11 93.48 132.18 75.17 C 134.28 73.29 136.56 71.63 139.11 70.40 Z" />
<path fill="#ffffff" opacity="1.00" d=" M 276.64 75.72 C 282.73 70.44 291.12 68.91 298.97 69.53 C 306.80 69.64 313.38 75.24 317.28 81.64 C 317.23 78.26 317.25 74.88 317.26 71.50 C 324.17 71.51 331.09 71.50 338.00 71.51 C 338.00 93.02 338.00 114.53 338.00 136.04 C 337.95 143.73 335.72 152.32 329.07 156.93 C 321.11 162.95 310.70 164.08 301.03 163.76 C 292.30 164.08 283.23 162.05 276.18 156.70 C 271.87 153.29 269.86 147.87 269.34 142.54 C 277.05 142.45 284.76 142.54 292.47 142.49 C 293.48 146.31 297.11 148.66 300.92 148.92 C 305.47 149.31 311.15 149.35 313.96 145.04 C 316.94 138.74 316.10 131.53 316.27 124.77 C 308.54 139.36 285.81 140.97 275.08 128.97 C 268.03 121.99 265.79 111.59 265.97 101.98 C 265.96 92.31 269.30 82.28 276.64 75.72 M 296.39 88.66 C 287.91 92.17 286.55 103.68 289.82 111.29 C 294.47 121.70 311.69 121.81 316.57 111.55 C 319.59 104.60 318.90 95.24 312.85 90.10 C 308.05 86.98 301.71 87.20 296.39 88.66 Z" />
<path fill="#ffffff" opacity="1.00" d=" M 352.78 81.78 C 357.38 75.66 364.46 71.70 371.91 70.22 C 382.64 68.26 394.67 69.51 403.32 76.71 C 412.04 84.48 415.47 96.61 415.02 108.00 C 398.70 108.05 382.39 107.90 366.08 108.08 C 366.67 113.01 367.64 118.90 372.46 121.50 C 379.70 125.69 390.92 123.87 394.84 115.89 C 400.50 118.17 406.18 120.39 411.81 122.72 C 408.25 131.56 398.98 136.13 390.06 137.61 C 379.53 138.84 368.07 138.13 359.07 131.92 C 352.89 127.98 348.23 121.77 346.30 114.69 C 343.35 103.54 345.08 90.68 352.78 81.78 M 374.73 83.78 C 369.67 85.14 367.89 90.75 366.63 95.23 C 375.40 95.26 384.18 95.28 392.95 95.21 C 392.31 91.23 390.38 87.39 387.07 84.99 C 383.44 82.65 378.76 82.87 374.73 83.78 Z" />
<path fill="#ffffff" opacity="1.00" d=" M 442.14 84.26 C 446.37 77.39 452.74 70.92 461.09 69.78 C 467.08 69.16 473.52 69.01 478.97 71.99 C 484.00 74.02 487.87 78.51 489.20 83.76 C 490.42 88.72 490.50 93.88 490.50 98.96 C 490.48 111.14 490.51 123.31 490.49 135.49 C 482.91 135.50 475.34 135.50 467.76 135.49 C 467.76 124.00 467.74 112.51 467.77 101.02 C 467.81 96.99 467.24 92.73 464.94 89.32 C 462.80 86.64 459.09 86.59 455.96 86.71 C 452.08 86.74 447.96 88.87 446.50 92.62 C 443.90 98.00 443.69 104.13 443.74 109.99 C 443.75 118.50 443.76 127.00 443.73 135.50 C 436.41 135.48 429.08 135.51 421.76 135.49 C 421.75 114.16 421.75 92.84 421.76 71.51 C 428.59 71.50 435.41 71.50 442.24 71.51 C 442.23 75.76 442.31 80.01 442.14 84.26 Z" />
<path fill="#ffffff" opacity="1.00" d=" M 582.56 80.57 C 587.85 72.67 597.66 68.72 606.99 69.47 C 615.57 69.04 623.18 74.75 627.27 81.94 C 627.23 78.46 627.25 74.98 627.26 71.51 C 634.17 71.50 641.08 71.50 648.00 71.51 C 648.00 92.84 648.00 114.16 648.00 135.49 C 641.08 135.50 634.17 135.49 627.26 135.49 C 627.24 132.04 627.24 128.59 627.28 125.14 C 622.48 133.14 613.40 138.54 603.97 138.05 C 597.10 138.40 590.15 135.58 585.43 130.58 C 579.38 124.76 576.79 116.25 576.16 108.08 C 575.39 98.59 576.71 88.38 582.56 80.57 M 607.23 88.26 C 602.46 89.64 599.57 94.37 598.83 99.05 C 598.01 103.99 598.40 109.45 601.23 113.73 C 606.85 122.18 621.65 121.54 626.31 112.43 C 629.71 105.31 628.98 95.68 622.96 90.17 C 618.53 86.83 612.36 86.90 607.23 88.26 Z" />
<path fill="#ffffff" opacity="1.00" d=" M 796.39 70.47 C 806.18 68.58 817.08 68.77 825.72 74.34 C 833.37 79.21 839.80 86.83 841.65 95.89 C 843.61 104.73 842.32 114.52 837.12 122.06 C 831.73 130.31 822.59 135.49 813.10 137.55 C 802.39 139.48 791.04 136.15 782.67 129.30 C 770.18 119.11 767.33 99.52 775.79 85.94 C 780.52 78.55 787.97 72.92 796.39 70.47 M 800.35 89.54 C 796.48 91.11 794.48 95.24 793.63 99.10 C 792.74 104.11 793.13 109.65 795.92 114.05 C 800.74 120.81 812.33 120.95 817.23 114.19 C 820.11 109.79 820.50 104.18 819.63 99.11 C 818.73 94.88 816.28 90.42 811.87 89.11 C 808.14 88.05 803.97 88.15 800.35 89.54 Z" />
<path fill="#ffffff" opacity="1.00" d=" M 987.28 70.31 C 996.54 68.75 1006.79 68.76 1015.06 73.83 C 1023.47 78.75 1030.39 87.07 1032.10 96.84 C 1033.66 105.01 1032.52 113.91 1028.04 121.02 C 1023.84 127.91 1017.03 133.09 1009.43 135.71 C 992.58 142.58 970.98 133.94 963.86 117.09 C 959.70 106.95 960.36 94.62 966.40 85.36 C 971.31 78.13 978.78 72.52 987.28 70.31 M 991.27 89.28 C 983.20 92.56 982.22 103.30 984.51 110.63 C 987.03 119.74 1000.28 122.01 1006.46 115.36 C 1010.02 111.59 1010.56 105.95 1010.16 101.01 C 1009.65 96.06 1007.08 90.53 1001.94 89.05 C 998.47 88.14 994.68 88.17 991.27 89.28 Z" />
<path fill="#ffffff" opacity="1.00" d=" M 741.25 135.49 C 741.33 114.13 741.09 92.77 741.37 71.42 C 748.83 71.62 756.30 71.43 763.76 71.53 C 763.73 92.85 763.75 114.17 763.75 135.49 C 756.25 135.50 748.75 135.50 741.25 135.49 Z" />
<path fill="#ffffff" opacity="1.00" d=" M 931.51 71.51 C 939.00 71.50 946.50 71.50 954.00 71.51 C 954.00 92.84 954.00 114.16 954.00 135.49 C 946.50 135.50 939.00 135.50 931.51 135.49 C 931.50 114.16 931.50 92.84 931.51 71.51 Z" />
<path fill="#ffffff" opacity="1.00" d=" M 996.17 144.48 C 998.20 144.49 1000.24 144.50 1002.29 144.51 C 1000.13 147.04 997.88 149.47 995.70 151.97 C 994.87 151.98 993.21 152.00 992.39 152.00 C 993.61 149.48 994.87 146.97 996.17 144.48 Z" />
<path fill="#ffffff" opacity="1.00" d=" M 695.14 144.49 C 697.11 144.50 699.08 144.50 701.07 144.51 C 698.92 147.01 696.77 149.51 694.62 152.00 C 693.81 152.00 692.20 152.00 691.39 152.00 C 692.62 149.49 693.87 146.98 695.14 144.49 Z" />
<path fill="#ffffff" opacity="1.00" d=" M 895.13 152.03 C 896.36 149.52 897.62 147.01 898.88 144.51 C 900.93 144.50 902.97 144.50 905.04 144.49 C 902.90 146.99 900.66 149.41 898.53 151.92 C 897.39 151.95 896.25 151.99 895.13 152.03 Z" />
<path fill="#ffffff" opacity="1.00" d=" M 354.01 155.25 C 360.50 155.26 367.00 155.24 373.50 155.26 C 373.49 157.58 373.49 159.91 373.49 162.24 C 369.82 162.24 366.16 162.24 362.50 162.25 C 362.49 164.08 362.49 165.92 362.50 167.75 C 365.91 167.76 369.32 167.76 372.74 167.75 C 372.74 170.00 372.74 172.25 372.74 174.50 C 369.32 174.49 365.91 174.49 362.50 174.50 C 362.49 176.25 362.49 178.00 362.49 179.75 C 366.16 179.76 369.82 179.75 373.49 179.76 C 373.49 182.08 373.49 184.41 373.50 186.73 C 367.00 186.77 360.51 186.74 354.01 186.75 C 353.99 176.25 353.99 165.75 354.01 155.25 Z" />
<path fill="#ffffff" opacity="1.00" d=" M 374.71 155.25 C 377.69 155.25 380.69 155.25 383.68 155.25 C 386.17 162.55 389.17 169.70 391.22 177.14 C 392.92 169.62 396.16 162.57 398.55 155.26 C 401.55 155.25 404.55 155.25 407.56 155.25 C 403.20 165.73 398.91 176.24 394.55 186.72 C 392.37 186.74 390.19 186.75 388.02 186.78 C 383.48 176.31 379.16 165.75 374.71 155.25 Z" />
<path fill="#ffffff" opacity="1.00" d=" M 410.25 155.25 C 416.75 155.25 423.25 155.25 429.75 155.25 C 429.74 157.58 429.74 159.91 429.75 162.24 C 426.08 162.24 422.41 162.24 418.75 162.25 C 418.74 164.08 418.74 165.91 418.75 167.75 C 422.16 167.76 425.58 167.76 429.00 167.76 C 429.00 170.00 429.00 172.25 429.00 174.49 C 425.58 174.49 422.17 174.49 418.75 174.50 C 418.75 176.25 418.74 178.00 418.75 179.75 C 422.41 179.76 426.08 179.75 429.75 179.76 C 429.74 182.09 429.75 184.42 429.75 186.74 C 423.25 186.75 416.75 186.75 410.25 186.75 C 410.25 176.25 410.25 165.75 410.25 155.25 Z" />
<path fill="#ffffff" opacity="1.00" d=" M 435.01 155.25 C 437.81 155.24 440.62 155.25 443.43 155.28 C 448.39 162.56 454.33 169.24 458.24 177.19 C 456.99 169.95 457.70 162.59 457.48 155.29 C 460.23 155.24 462.99 155.24 465.75 155.25 C 465.75 165.75 465.75 176.25 465.75 186.75 C 462.96 186.75 460.18 186.75 457.40 186.74 C 452.70 179.56 446.46 173.26 443.16 165.26 C 443.64 172.41 443.46 179.57 443.51 186.73 C 440.67 186.75 437.84 186.75 435.01 186.75 C 434.99 176.25 434.99 165.75 435.01 155.25 Z" />
<path fill="#ffffff" opacity="1.00" d=" M 470.01 155.25 C 477.59 155.26 485.17 155.25 492.75 155.25 C 492.75 157.75 492.75 160.25 492.75 162.74 C 490.41 162.75 488.08 162.75 485.75 162.75 C 485.74 170.75 485.75 178.75 485.75 186.75 C 482.91 186.75 480.08 186.75 477.25 186.75 C 477.24 178.75 477.26 170.75 477.25 162.75 C 474.83 162.75 472.42 162.75 470.01 162.75 C 469.99 160.25 469.99 157.75 470.01 155.25 Z" />
<path fill="#ffffff" opacity="1.00" d=" M 506.32 155.37 C 512.51 153.58 519.84 154.82 524.18 159.90 C 531.01 166.38 530.07 178.92 522.17 184.13 C 513.49 191.13 498.60 186.78 495.64 175.88 C 492.88 167.51 498.24 158.22 506.32 155.37 M 508.37 162.47 C 504.38 164.58 502.51 169.71 503.86 173.98 C 504.90 179.05 511.10 182.03 515.65 179.48 C 521.91 175.99 521.45 165.03 514.74 162.32 C 512.69 161.78 510.36 161.70 508.37 162.47 Z" />
<path fill="#ffffff" opacity="1.00" d=" M 539.48 155.28 C 544.24 153.85 549.28 154.85 553.49 157.35 C 552.59 159.42 551.68 161.48 550.78 163.54 C 548.28 162.06 545.31 160.55 542.34 161.48 C 541.37 162.48 540.71 164.04 541.62 165.31 C 545.07 167.95 550.51 167.05 553.20 170.84 C 556.39 175.82 554.77 183.58 549.21 186.18 C 543.52 188.92 536.17 187.73 531.76 183.12 C 533.00 180.98 534.24 178.84 535.46 176.67 C 537.72 178.92 540.53 181.50 543.99 180.98 C 546.74 180.77 548.37 176.63 545.69 175.12 C 541.99 173.25 537.13 173.21 534.45 169.64 C 531.43 164.62 534.05 157.35 539.48 155.28 Z" />
<path fill="#ffffff" opacity="1.00" d=" M 573.25 155.26 C 578.52 155.14 583.79 155.47 589.06 155.58 C 595.93 156.50 598.99 165.64 595.10 171.02 C 593.77 172.71 591.77 173.58 589.81 174.32 C 592.66 178.42 595.40 182.59 598.14 186.77 C 594.90 186.75 591.66 186.74 588.43 186.76 C 586.12 182.70 583.79 178.65 581.48 174.59 C 581.50 178.64 581.49 182.68 581.50 186.73 C 578.75 186.75 576.00 186.75 573.25 186.75 C 573.25 176.25 573.25 165.75 573.25 155.26 M 581.51 161.74 C 581.49 164.60 581.48 167.46 581.50 170.32 C 583.77 170.23 587.09 170.66 588.03 167.95 C 588.95 165.69 587.68 163.65 586.22 162.02 C 584.64 161.95 583.07 161.85 581.51 161.74 Z" />
<path fill="#ffffff" opacity="1.00" d=" M 601.50 155.27 C 607.99 155.23 614.49 155.26 620.99 155.25 C 620.99 157.58 620.99 159.91 621.00 162.24 C 617.33 162.24 613.67 162.24 610.00 162.24 C 610.00 164.08 610.00 165.92 610.00 167.76 C 613.41 167.75 616.82 167.75 620.24 167.76 C 620.24 170.00 620.24 172.24 620.24 174.49 C 616.83 174.50 613.42 174.50 610.01 174.49 C 610.00 176.24 610.00 178.00 610.00 179.76 C 613.66 179.75 617.33 179.75 621.00 179.76 C 620.99 182.09 620.99 184.42 620.99 186.75 C 614.50 186.75 608.00 186.75 601.51 186.75 C 601.49 176.26 601.52 165.76 601.50 155.27 Z" />
<path fill="#ffffff" opacity="1.00" d=" M 630.68 158.68 C 638.11 152.08 650.70 153.65 656.44 161.74 C 653.98 163.02 651.50 164.26 649.01 165.46 C 646.98 163.09 644.19 161.29 640.92 161.98 C 634.19 162.03 632.51 170.74 634.39 175.89 C 636.52 183.12 648.84 182.82 650.22 175.26 C 647.31 175.23 644.41 175.24 641.51 175.24 C 641.50 172.99 641.50 170.75 641.51 168.51 C 647.18 168.50 652.86 168.50 658.54 168.51 C 658.56 172.76 658.32 177.31 655.93 180.98 C 649.61 190.57 632.85 189.66 627.46 179.56 C 623.59 172.98 624.80 163.70 630.68 158.68 Z" />
<path fill="#ffffff" opacity="1.00" d=" M 663.84 155.20 C 666.71 155.26 669.60 155.26 672.49 155.25 C 672.50 165.75 672.50 176.25 672.48 186.75 C 669.57 186.75 666.66 186.75 663.76 186.75 C 663.80 176.23 663.66 165.71 663.84 155.20 Z" />
<path fill="#ffffff" opacity="1.00" d=" M 689.40 155.34 C 695.55 153.61 702.81 154.82 707.14 159.86 C 714.04 166.34 713.08 178.99 705.09 184.19 C 696.41 191.12 681.59 186.74 678.64 175.88 C 675.87 167.48 681.27 158.17 689.40 155.34 M 691.36 162.47 C 687.37 164.60 685.51 169.72 686.86 173.99 C 687.90 179.04 694.08 182.02 698.63 179.49 C 704.93 176.01 704.46 164.98 697.69 162.30 C 695.64 161.79 693.33 161.70 691.36 162.47 Z" />
<path fill="#ffffff" opacity="1.00" d=" M 717.01 155.25 C 719.82 155.24 722.65 155.24 725.48 155.30 C 730.38 162.60 736.34 169.23 740.23 177.17 C 739.00 169.92 739.66 162.56 739.51 155.25 C 742.25 155.25 745.00 155.25 747.75 155.25 C 747.75 165.75 747.75 176.25 747.75 186.74 C 744.96 186.75 742.18 186.75 739.40 186.74 C 734.72 179.55 728.43 173.28 725.19 165.26 C 725.57 172.43 725.54 179.60 725.46 186.78 C 722.63 186.74 719.82 186.74 717.01 186.75 C 716.99 176.25 716.99 165.75 717.01 155.25 Z" />
<path fill="#ffffff" opacity="1.00" d=" M 768.25 155.24 C 772.50 155.13 776.74 155.59 781.00 155.49 C 785.18 155.10 789.21 157.10 792.34 159.73 C 799.47 166.58 798.06 180.59 788.78 184.93 C 782.35 187.80 775.07 186.42 768.25 186.75 C 768.25 176.25 768.25 165.74 768.25 155.24 M 776.77 162.21 C 776.73 168.07 776.75 173.92 776.75 179.78 C 778.81 179.69 780.96 180.00 782.96 179.30 C 788.53 177.86 789.12 170.38 786.89 166.02 C 785.11 162.19 780.29 162.54 776.77 162.21 Z" />
<path fill="#ffffff" opacity="1.00" d=" M 802.01 155.25 C 808.50 155.26 815.00 155.24 821.50 155.26 C 821.49 157.58 821.49 159.91 821.49 162.24 C 817.82 162.24 814.16 162.24 810.50 162.25 C 810.49 164.08 810.49 165.91 810.50 167.75 C 813.90 167.76 817.32 167.76 820.74 167.75 C 820.74 170.00 820.74 172.24 820.75 174.49 C 817.33 174.50 813.91 174.50 810.50 174.50 C 810.49 176.25 810.49 178.00 810.49 179.75 C 814.15 179.76 817.82 179.75 821.49 179.76 C 821.49 182.08 821.49 184.40 821.51 186.73 C 815.00 186.77 808.50 186.74 802.01 186.75 C 801.99 176.25 801.99 165.75 802.01 155.25 Z" />
<path fill="#ffffff" opacity="1.00" d=" M 827.01 155.25 C 829.91 155.25 832.83 155.25 835.75 155.25 C 835.75 163.34 835.74 171.42 835.75 179.50 C 839.24 179.50 842.74 179.50 846.24 179.51 C 846.24 181.92 846.24 184.33 846.25 186.74 C 839.83 186.76 833.42 186.74 827.01 186.75 C 826.99 176.25 826.99 165.75 827.01 155.25 Z" />
<path fill="#ffffff" opacity="1.00" d=" M 864.25 155.26 C 869.82 155.22 875.40 155.35 880.95 155.74 C 885.29 156.15 888.69 160.56 887.62 164.88 C 887.13 167.61 884.62 169.23 882.10 169.79 C 888.78 169.85 890.95 178.66 887.36 183.31 C 885.49 185.90 882.04 186.37 879.09 186.66 C 874.14 186.88 869.19 186.69 864.25 186.75 C 864.25 176.25 864.25 165.75 864.25 155.26 M 872.28 161.45 C 872.25 163.55 872.23 165.65 872.24 167.75 C 874.13 167.76 876.04 167.85 877.95 167.68 C 880.32 166.57 879.70 163.43 878.34 161.76 C 876.31 161.76 874.28 161.62 872.28 161.45 M 872.26 173.44 C 872.24 175.72 872.24 177.99 872.25 180.27 C 874.90 180.14 877.86 180.74 880.27 179.29 C 881.68 177.62 880.87 175.41 879.81 173.81 C 877.29 173.74 874.76 173.58 872.26 173.44 Z" />
<path fill="#ffffff" opacity="1.00" d=" M 894.25 155.25 C 897.16 155.25 900.07 155.25 902.99 155.25 C 903.00 165.75 903.00 176.25 902.99 186.75 C 900.07 186.75 897.16 186.75 894.25 186.74 C 894.25 176.25 894.25 165.75 894.25 155.25 Z" />
<path fill="#ffffff" opacity="1.00" d=" M 919.49 155.61 C 925.81 153.45 933.56 154.68 938.01 160.00 C 944.51 166.26 943.92 178.24 936.57 183.61 C 930.41 188.89 920.52 188.80 914.43 183.47 C 908.39 178.74 907.00 169.41 910.94 162.93 C 913.00 159.74 915.93 157.04 919.49 155.61 M 922.35 162.38 C 918.12 164.39 916.17 169.84 917.68 174.21 C 918.83 179.17 924.97 182.00 929.43 179.46 C 934.95 176.32 935.21 167.56 930.57 163.54 C 928.34 161.61 925.03 161.59 922.35 162.38 Z" />
<path fill="#ffffff" opacity="1.00" d=" M 961.50 155.27 C 966.82 155.16 972.14 155.43 977.46 155.62 C 981.36 155.84 985.04 158.94 985.03 163.02 C 985.36 166.48 982.51 169.41 979.18 169.79 C 986.05 169.69 988.29 178.83 984.48 183.48 C 982.53 185.99 979.10 186.38 976.16 186.68 C 971.28 186.87 966.39 186.68 961.51 186.75 C 961.49 176.26 961.52 165.76 961.50 155.27 M 969.52 161.46 C 969.49 163.56 969.48 165.66 969.49 167.76 C 971.95 167.53 976.81 168.95 976.79 165.06 C 977.29 160.75 972.24 161.80 969.52 161.46 M 969.50 173.45 C 969.48 175.72 969.49 177.99 969.50 180.26 C 972.12 180.17 974.96 180.67 977.39 179.38 C 979.03 177.77 978.10 175.40 977.00 173.79 C 974.49 173.73 971.99 173.59 969.50 173.45 Z" />
<path fill="#ffffff" opacity="1.00" d=" M 991.52 155.25 C 994.41 155.25 997.32 155.25 1000.24 155.25 C 1000.24 165.75 1000.25 176.25 1000.24 186.75 C 997.31 186.75 994.40 186.75 991.50 186.73 C 991.52 176.24 991.48 165.74 991.52 155.25 Z" />
<path fill="#ffffff" opacity="1.00" d=" M 1016.47 155.61 C 1022.79 153.45 1030.55 154.68 1035.00 159.99 C 1041.51 166.25 1040.93 178.23 1033.58 183.60 C 1027.43 188.88 1017.54 188.81 1011.45 183.48 C 1005.41 178.77 1004.00 169.45 1007.91 162.97 C 1009.97 159.76 1012.91 157.06 1016.47 155.61 M 1019.44 162.35 C 1015.12 164.32 1013.15 169.86 1014.69 174.27 C 1015.88 179.19 1021.97 181.98 1026.42 179.47 C 1031.95 176.34 1032.22 167.54 1027.55 163.52 C 1025.34 161.62 1022.09 161.61 1019.44 162.35 Z" />
</g>
<g id="#133d6aff">
<path fill="#133d6a" opacity="1.00" d=" M 5.66 186.01 C 47.77 185.99 89.87 186.01 131.98 185.99 L 132.64 185.98 C 138.20 185.99 143.76 186.01 149.31 186.00 C 148.45 190.26 144.30 193.11 140.07 192.99 C 98.38 193.01 56.69 193.02 15.00 192.99 C 10.74 193.13 6.56 190.28 5.66 186.01 Z" />
</g>
</svg>
