<?xml version="1.0" encoding="UTF-8" ?>
<!DOCTYPE svg PUBLIC "-//W3C//DTD SVG 1.1//EN" "http://www.w3.org/Graphics/SVG/1.1/DTD/svg11.dtd">
<svg width="1040pt" height="197pt" viewBox="0 0 1040 197" version="1.1" xmlns="http://www.w3.org/2000/svg">
<g id="#194f8cff">
<path fill="#194f8c" opacity="1.00" d=" M 133.01 166.55 C 138.85 166.44 144.70 166.41 150.55 166.68 C 145.22 172.74 139.34 178.30 133.61 183.97 L 132.99 183.98 C 133.00 178.17 132.99 172.36 133.01 166.55 Z" />
</g>
<g id="#3387c5ff">
<path fill="#3387c5" opacity="1.00" d=" M 34.21 6.22 C 38.88 4.74 45.27 5.54 47.39 10.60 C 48.48 13.94 47.89 17.54 48.03 21.00 C 47.90 24.79 48.44 28.68 47.47 32.39 C 44.31 39.63 31.90 39.39 29.35 31.81 C 28.59 25.92 29.08 19.93 29.01 13.99 C 28.84 10.64 31.07 7.36 34.21 6.22 Z" />
<path fill="#3387c5" opacity="1.00" d=" M 113.37 6.45 C 118.33 4.47 125.68 5.56 127.41 11.37 C 128.13 17.55 127.72 23.84 127.67 30.05 C 127.26 37.54 116.63 39.93 111.59 35.38 C 107.42 32.24 109.06 26.45 108.73 21.99 C 108.87 16.64 107.33 9.21 113.37 6.45 Z" />
<path fill="#3387c5" opacity="1.00" d=" M 6.06 27.04 C 12.16 26.98 18.26 26.92 24.36 27.11 C 24.62 30.28 24.53 33.77 26.57 36.42 C 31.93 44.14 45.02 44.15 50.41 36.46 C 52.47 33.80 52.37 30.28 52.65 27.10 C 69.77 26.88 86.90 27.04 104.02 27.02 C 104.30 30.29 104.32 33.89 106.45 36.61 C 111.95 44.21 125.01 44.06 130.29 36.28 C 132.24 33.62 132.13 30.17 132.45 27.03 C 138.62 26.98 144.79 26.96 150.97 27.06 C 151.06 79.39 150.96 131.71 151.00 184.03 L 150.50 184.03 C 144.87 184.01 139.24 183.96 133.61 183.97 C 139.34 178.30 145.22 172.74 150.55 166.68 C 144.70 166.41 138.85 166.44 133.01 166.55 C 132.99 172.36 133.00 178.17 132.99 183.98 C 90.84 184.04 48.68 183.95 6.53 184.03 L 6.00 184.03 C 6.03 131.70 5.92 79.37 6.06 27.04 M 140.04 68.36 C 138.23 69.41 136.43 70.49 134.82 71.81 C 112.21 90.58 89.61 109.38 66.98 128.12 C 62.85 123.24 58.68 118.40 54.57 113.50 C 48.10 116.81 41.70 120.27 35.26 123.63 C 46.76 133.29 58.24 142.98 69.76 152.62 C 92.07 125.95 114.38 99.28 136.70 72.63 C 137.85 71.23 138.97 69.81 140.04 68.36 Z" />
</g>
<g id="#ffffffff">
<path fill="#ffffff" opacity="1.00" d=" M 548.51 47.00 C 555.75 47.00 563.00 47.00 570.24 47.00 C 570.24 79.83 570.25 112.66 570.24 145.49 C 563.24 145.50 556.25 145.49 549.26 145.49 C 549.25 142.04 549.24 138.58 549.27 135.12 C 545.47 140.89 539.99 145.79 533.16 147.50 C 524.64 149.22 515.11 147.43 508.61 141.41 C 502.15 135.89 499.04 127.43 498.26 119.16 C 497.25 109.30 498.65 98.69 504.65 90.52 C 509.02 83.75 516.92 79.57 524.96 79.49 C 530.18 79.40 535.95 79.27 540.39 82.47 C 543.97 84.85 546.84 88.14 549.16 91.73 C 548.80 89.16 548.47 86.58 548.49 83.98 C 548.51 71.66 548.50 59.33 548.51 47.00 M 529.38 98.45 C 520.06 101.93 518.45 114.56 522.47 122.58 C 526.86 131.10 540.09 132.53 546.20 125.19 C 552.30 118.31 551.64 106.30 544.63 100.26 C 540.29 97.09 534.37 97.20 529.38 98.45 Z" />
<path fill="#ffffff" opacity="1.00" d=" M 749.40 49.61 C 754.26 48.56 760.39 49.01 763.38 53.57 C 767.81 58.97 766.54 67.83 760.68 71.70 C 754.19 77.12 743.47 72.81 741.48 64.89 C 739.45 58.77 743.30 51.52 749.40 49.61 Z" />
<path fill="#ffffff" opacity="1.00" d=" M 939.49 49.65 C 944.34 48.57 950.49 48.93 953.55 53.45 C 958.11 58.90 956.80 67.96 950.78 71.81 C 944.37 76.99 934.00 72.88 931.82 65.23 C 929.62 59.08 933.35 51.69 939.49 49.65 Z" />
<path fill="#ffffff" opacity="1.00" d=" M 851.76 52.51 C 861.15 52.58 870.55 52.30 879.94 52.73 C 887.99 53.01 896.32 51.92 904.09 54.62 C 911.19 56.49 917.53 61.88 919.58 69.06 C 921.06 74.40 920.94 80.40 918.53 85.46 C 915.51 91.03 909.37 93.86 903.59 95.66 C 909.42 96.01 915.52 98.03 919.27 102.75 C 926.21 110.81 926.42 123.39 921.29 132.42 C 917.37 139.63 909.24 143.23 901.43 144.24 C 884.97 146.51 868.31 145.11 851.76 145.49 C 851.75 114.50 851.76 83.50 851.76 52.51 M 875.24 70.96 C 875.24 77.22 875.24 83.48 875.24 89.75 C 881.54 89.62 888.51 90.64 894.09 87.05 C 898.11 83.06 897.32 74.64 891.81 72.33 C 886.47 70.66 880.75 71.35 875.24 70.96 M 875.25 106.24 C 875.25 113.00 875.20 119.76 875.29 126.53 C 881.89 126.19 888.78 127.42 895.13 125.10 C 903.14 122.58 902.15 108.54 893.92 107.09 C 887.76 106.06 881.47 106.35 875.25 106.24 Z" />
<path fill="#ffffff" opacity="1.00" d=" M 173.53 145.49 C 184.27 114.50 194.82 83.46 205.60 52.49 C 216.13 52.52 226.66 52.49 237.19 52.51 C 247.97 83.49 258.68 114.50 269.46 145.49 C 261.04 145.50 252.63 145.49 244.21 145.49 C 242.60 139.91 241.10 134.29 239.43 128.73 C 227.45 128.79 215.47 128.70 203.50 128.78 C 201.94 134.35 200.37 139.92 198.79 145.49 C 190.37 145.49 181.95 145.50 173.53 145.49 M 221.46 67.81 C 218.12 82.34 213.08 96.41 209.05 110.76 C 217.44 110.76 225.82 110.76 234.20 110.75 C 229.91 96.45 225.10 82.30 221.46 67.81 Z" />
<path fill="#ffffff" opacity="1.00" d=" M 661.51 52.51 C 671.99 52.51 682.47 52.41 692.95 52.76 C 702.67 52.55 713.28 52.45 721.58 58.28 C 730.26 64.21 732.65 76.80 728.00 85.95 C 724.85 91.23 718.89 94.01 713.18 95.62 C 718.18 95.99 723.36 97.33 727.16 100.79 C 738.51 111.14 736.64 132.49 723.24 140.30 C 715.91 144.54 707.21 144.77 698.99 145.41 C 686.50 145.61 674.00 145.44 661.51 145.49 C 661.50 114.50 661.50 83.50 661.51 52.51 M 685.00 70.96 C 685.00 77.22 685.00 83.49 685.00 89.75 C 691.33 89.60 698.38 90.68 703.94 86.95 C 708.28 82.61 706.69 73.02 700.09 71.90 C 695.14 70.86 690.02 71.26 685.00 70.96 M 685.01 106.23 C 684.99 112.99 685.00 119.74 685.00 126.50 C 692.31 126.13 700.30 127.83 707.00 124.06 C 712.79 119.74 710.94 107.91 703.20 106.99 C 697.19 106.12 691.07 106.32 685.01 106.23 Z" />
<path fill="#ffffff" opacity="1.00" d=" M 140.04 68.36 C 138.97 69.81 137.85 71.23 136.70 72.63 C 114.38 99.28 92.07 125.95 69.76 152.62 C 58.24 142.98 46.76 133.29 35.26 123.63 C 41.70 120.27 48.10 116.81 54.57 113.50 C 58.68 118.40 62.85 123.24 66.98 128.12 C 89.61 109.38 112.21 90.58 134.82 71.81 C 136.43 70.49 138.23 69.41 140.04 68.36 Z" />
<path fill="#ffffff" opacity="1.00" d=" M 277.68 85.69 C 284.56 79.76 294.24 78.59 302.95 79.88 C 309.54 81.04 314.64 86.09 318.26 91.42 C 318.25 88.12 318.25 84.81 318.25 81.51 C 325.16 81.50 332.08 81.51 339.00 81.51 C 339.00 102.99 339.00 124.48 339.00 145.97 C 338.94 153.48 336.90 161.80 330.60 166.54 C 322.57 172.89 311.87 174.10 301.96 173.77 C 293.07 174.04 283.75 171.99 276.72 166.30 C 272.65 162.90 270.94 157.64 270.29 152.55 C 277.99 152.47 285.69 152.49 293.39 152.53 C 294.53 155.83 297.35 158.30 300.84 158.76 C 305.67 159.35 311.99 159.66 314.98 154.96 C 317.93 148.72 317.08 141.58 317.29 134.89 C 309.35 149.34 286.79 150.97 276.03 138.93 C 268.80 131.70 266.66 120.94 266.99 111.06 C 267.16 101.68 270.56 92.03 277.68 85.69 M 297.44 98.63 C 288.92 102.14 287.53 113.68 290.83 121.31 C 295.50 131.71 312.70 131.80 317.58 121.55 C 320.57 114.64 319.93 105.32 313.93 100.18 C 309.17 96.95 302.78 97.21 297.44 98.63 Z" />
<path fill="#ffffff" opacity="1.00" d=" M 371.36 80.57 C 382.25 78.16 394.67 79.11 403.70 86.23 C 412.92 93.87 416.42 106.39 416.05 118.00 C 399.71 118.05 383.37 117.90 367.04 118.08 C 367.74 122.78 368.46 128.36 372.87 131.12 C 380.15 135.87 391.72 133.98 395.92 125.92 C 401.56 128.21 407.24 130.41 412.87 132.74 C 408.72 142.48 398.01 147.16 388.02 147.95 C 381.68 148.13 375.14 148.35 369.07 146.19 C 359.69 143.32 351.31 136.34 348.03 126.93 C 345.43 119.41 345.27 111.03 347.49 103.39 C 350.83 92.39 360.00 83.11 371.36 80.57 M 375.72 93.78 C 370.63 95.14 368.96 100.78 367.57 105.23 C 376.39 105.25 385.21 105.29 394.04 105.21 C 393.17 101.28 391.45 97.34 388.05 94.98 C 384.43 92.63 379.75 92.88 375.72 93.78 Z" />
<path fill="#ffffff" opacity="1.00" d=" M 443.15 94.21 C 447.42 87.41 453.72 80.90 462.06 79.80 C 468.08 79.13 474.54 79.04 480.02 82.00 C 485.02 84.06 488.88 88.53 490.21 93.77 C 491.36 98.41 491.47 103.24 491.51 108.00 C 491.48 120.50 491.50 132.99 491.49 145.49 C 483.91 145.50 476.34 145.50 468.76 145.49 C 468.76 134.01 468.74 122.53 468.77 111.05 C 468.78 106.97 468.28 102.61 465.83 99.22 C 462.90 95.95 457.86 96.46 453.97 97.15 C 447.04 98.90 445.47 107.02 444.93 113.12 C 444.50 123.90 444.87 134.70 444.75 145.49 C 437.42 145.50 430.09 145.50 422.76 145.49 C 422.75 124.16 422.75 102.84 422.76 81.51 C 429.58 81.50 436.41 81.50 443.24 81.51 C 443.24 85.74 443.29 89.98 443.15 94.21 Z" />
<path fill="#ffffff" opacity="1.00" d=" M 591.33 83.29 C 597.39 79.40 604.97 78.97 611.95 79.77 C 619.03 80.72 624.67 86.00 628.29 91.88 C 628.23 88.42 628.24 84.96 628.26 81.51 C 635.17 81.50 642.08 81.50 649.00 81.51 C 649.00 102.84 649.00 124.16 649.00 145.49 C 642.08 145.50 635.17 145.50 628.25 145.49 C 628.24 142.05 628.24 138.60 628.28 135.16 C 623.46 143.10 614.47 148.51 605.07 148.06 C 597.42 148.49 589.87 144.92 585.00 139.08 C 577.91 130.86 576.42 119.34 577.15 108.88 C 577.82 98.88 582.53 88.60 591.33 83.29 M 608.23 98.26 C 599.16 101.36 597.86 113.38 600.88 121.22 C 604.84 131.73 621.49 132.55 626.98 123.02 C 630.71 116.02 630.15 106.35 624.40 100.57 C 620.03 96.79 613.52 96.87 608.23 98.26 Z" />
<path fill="#ffffff" opacity="1.00" d=" M 797.36 80.48 C 806.89 78.65 817.54 78.70 826.05 83.96 C 834.35 88.92 841.17 97.17 842.85 106.87 C 844.41 114.98 843.28 123.80 838.88 130.88 C 834.73 137.79 827.95 142.94 820.41 145.66 C 804.32 152.24 783.72 144.87 775.74 129.35 C 771.15 120.76 770.90 110.19 774.18 101.11 C 778.16 91.16 787.14 83.50 797.36 80.48 M 801.36 99.53 C 797.50 101.11 795.47 105.22 794.63 109.08 C 793.78 113.89 794.10 119.13 796.54 123.45 C 801.14 131.01 813.95 131.16 818.62 123.57 C 821.15 119.23 821.47 113.92 820.62 109.06 C 819.72 104.86 817.28 100.45 812.92 99.13 C 809.18 98.04 805.01 98.15 801.36 99.53 Z" />
<path fill="#ffffff" opacity="1.00" d=" M 988.21 80.33 C 997.50 78.74 1007.78 78.76 1016.08 83.83 C 1024.48 88.78 1031.39 97.08 1033.11 106.85 C 1034.76 115.49 1033.36 124.93 1028.26 132.22 C 1022.80 140.46 1013.61 145.60 1004.08 147.59 C 993.66 149.40 982.68 146.21 974.44 139.70 C 961.54 129.66 958.48 109.77 966.99 96.00 C 971.85 88.45 979.50 82.61 988.21 80.33 M 992.23 99.29 C 987.73 100.82 985.39 105.62 984.72 110.04 C 984.07 114.77 984.52 119.93 987.16 124.03 C 992.07 130.94 1004.10 130.97 1008.76 123.75 C 1011.28 119.68 1011.64 114.61 1011.02 109.97 C 1010.31 105.37 1007.71 100.39 1002.93 99.05 C 999.45 98.14 995.65 98.17 992.23 99.29 Z" />
<path fill="#ffffff" opacity="1.00" d=" M 742.24 81.52 C 749.73 81.48 757.21 81.54 764.70 81.47 C 764.80 102.82 764.74 124.16 764.73 145.51 C 757.23 145.48 749.74 145.51 742.24 145.49 C 742.25 124.16 742.26 102.84 742.24 81.52 Z" />
<path fill="#ffffff" opacity="1.00" d=" M 932.51 81.51 C 940.00 81.50 947.50 81.50 955.00 81.51 C 955.00 102.84 955.00 124.16 955.00 145.49 C 947.50 145.50 940.00 145.50 932.51 145.49 C 932.50 124.16 932.50 102.84 932.51 81.51 Z" />
<path fill="#ffffff" opacity="1.00" d=" M 750.98 160.12 C 751.61 158.75 752.27 157.40 752.93 156.04 C 754.57 156.04 756.22 156.05 757.89 156.07 C 756.05 158.19 754.19 160.75 750.98 160.12 Z" />
<path fill="#ffffff" opacity="1.00" d=" M 913.84 159.85 C 914.51 158.57 915.19 157.29 915.87 156.00 C 917.46 156.02 919.08 156.06 920.70 156.10 C 919.50 157.41 918.31 158.73 917.13 160.05 C 916.31 160.00 914.66 159.90 913.84 159.85 Z" />
<path fill="#ffffff" opacity="1.00" d=" M 987.85 159.86 C 988.51 158.57 989.19 157.29 989.86 156.00 C 991.46 156.02 993.07 156.06 994.70 156.10 C 993.50 157.41 992.31 158.73 991.13 160.05 C 990.31 160.00 988.67 159.91 987.85 159.86 Z" />
<path fill="#ffffff" opacity="1.00" d=" M 347.63 162.04 C 354.21 161.98 360.79 161.98 367.38 162.04 C 367.37 162.77 367.37 164.23 367.37 164.96 C 362.12 165.02 356.86 164.99 351.61 165.00 C 351.61 168.00 351.61 171.00 351.61 174.00 C 356.53 174.00 361.45 173.98 366.37 174.04 C 366.37 174.77 366.37 176.23 366.37 176.96 C 361.45 177.02 356.53 177.00 351.61 177.00 C 351.61 180.00 351.61 183.00 351.61 186.00 C 357.02 186.00 362.43 186.00 367.84 186.00 C 367.84 186.75 367.84 188.25 367.84 188.99 C 361.10 188.99 354.37 189.03 347.63 188.96 C 347.64 179.99 347.64 171.01 347.63 162.04 Z" />
<path fill="#ffffff" opacity="1.00" d=" M 369.64 162.09 C 371.18 162.05 372.72 162.01 374.27 161.97 C 376.82 169.65 380.14 177.08 382.12 184.94 C 384.73 177.19 387.79 169.60 390.70 161.96 C 392.13 162.00 393.57 162.03 395.01 162.07 C 391.44 171.14 387.65 180.12 384.06 189.18 C 382.79 189.07 381.53 188.90 380.29 188.67 C 376.51 179.91 373.32 170.90 369.64 162.09 Z" />
<path fill="#ffffff" opacity="1.00" d=" M 397.16 162.00 C 403.64 162.00 410.12 161.98 416.60 162.02 C 416.62 162.75 416.67 164.21 416.69 164.93 C 411.40 165.05 406.12 164.99 400.84 165.00 C 400.83 168.00 400.83 171.00 400.84 174.00 C 405.76 174.00 410.68 173.99 415.61 174.01 C 415.61 174.75 415.62 176.24 415.63 176.98 C 410.70 177.01 405.77 177.00 400.84 177.00 C 400.83 180.00 400.83 183.00 400.84 186.00 C 406.35 186.01 411.86 185.97 417.37 186.04 C 417.37 186.77 417.37 188.23 417.37 188.96 C 410.63 189.03 403.90 188.99 397.16 189.00 C 397.17 180.00 397.17 171.00 397.16 162.00 Z" />
<path fill="#ffffff" opacity="1.00" d=" M 421.63 162.00 C 423.07 162.03 424.52 162.05 425.97 162.09 C 430.35 168.98 434.94 175.73 439.29 182.64 C 439.23 175.75 439.28 168.85 439.26 161.96 C 440.59 162.01 441.93 162.06 443.27 162.11 C 443.24 171.04 443.24 179.97 443.27 188.91 C 441.79 188.94 440.31 188.98 438.84 189.02 C 434.51 181.98 429.53 175.34 425.54 168.11 C 425.69 175.07 425.57 182.05 425.61 189.02 C 424.61 189.00 422.62 188.96 421.63 188.94 C 421.65 179.96 421.64 170.98 421.63 162.00 Z" />
<path fill="#ffffff" opacity="1.00" d=" M 446.37 162.02 C 453.49 161.98 460.61 162.00 467.74 162.01 C 467.74 162.75 467.74 164.24 467.74 164.99 C 464.91 165.00 462.08 165.00 459.25 165.01 C 459.27 172.97 459.23 180.93 459.27 188.89 C 457.93 188.94 456.59 188.99 455.26 189.04 C 455.26 181.03 455.26 173.01 455.26 165.00 C 452.30 165.00 449.35 165.00 446.39 164.99 C 446.39 164.25 446.37 162.76 446.37 162.02 Z" />
<path fill="#ffffff" opacity="1.00" d=" M 477.42 162.67 C 482.13 161.24 487.95 161.63 491.52 165.38 C 496.01 170.02 496.41 177.64 493.41 183.18 C 489.33 190.54 477.45 191.19 472.40 184.56 C 467.09 177.86 469.02 165.90 477.42 162.67 M 481.21 165.17 C 471.31 166.54 470.97 183.56 480.57 185.69 C 484.25 186.65 488.53 184.51 490.00 180.99 C 491.49 177.31 491.47 173.00 489.67 169.43 C 488.20 166.38 484.49 164.68 481.21 165.17 Z" />
<path fill="#ffffff" opacity="1.00" d=" M 504.32 162.43 C 508.18 161.66 512.75 161.44 516.02 164.02 C 517.89 165.42 518.46 167.79 519.11 169.91 C 517.78 169.92 516.45 169.92 515.14 169.91 C 514.11 163.81 504.65 163.36 502.35 168.79 C 502.70 169.44 503.40 170.73 503.75 171.38 C 507.68 172.95 512.02 173.27 515.84 175.13 C 519.49 176.87 520.76 182.08 518.21 185.26 C 515.01 189.79 508.50 189.63 503.71 188.29 C 500.00 187.23 498.42 183.48 497.52 180.10 C 498.83 180.07 500.16 180.05 501.49 180.04 C 502.69 186.26 511.74 188.03 515.42 183.08 C 515.50 181.54 515.91 179.54 514.19 178.73 C 510.25 176.59 505.41 176.77 501.56 174.39 C 499.69 173.20 499.24 170.88 498.41 168.99 C 499.48 166.16 501.09 163.13 504.32 162.43 Z" />
<path fill="#ffffff" opacity="1.00" d=" M 534.26 162.01 C 539.10 162.14 543.99 161.63 548.80 162.33 C 554.26 163.76 556.69 169.84 556.56 175.02 C 556.79 180.37 554.63 186.98 548.91 188.56 C 544.08 189.45 539.13 188.83 534.26 188.99 C 534.27 180.00 534.27 171.00 534.26 162.01 M 538.25 164.98 C 538.26 171.99 538.25 179.01 538.25 186.03 C 542.16 185.90 546.72 186.61 549.92 183.84 C 553.11 179.24 553.35 172.46 550.35 167.71 C 547.47 164.12 542.29 165.18 538.25 164.98 Z" />
<path fill="#ffffff" opacity="1.00" d=" M 561.16 162.00 C 567.64 162.00 574.12 162.00 580.60 162.00 C 580.61 162.75 580.63 164.23 580.64 164.97 C 575.37 165.02 570.10 164.99 564.84 165.00 C 564.83 168.00 564.83 171.00 564.84 174.00 C 569.76 174.00 574.68 173.99 579.61 174.01 C 579.61 174.75 579.62 176.24 579.62 176.99 C 574.69 177.01 569.76 177.00 564.84 177.00 C 564.83 180.00 564.83 183.00 564.84 186.00 C 570.35 186.01 575.86 185.97 581.37 186.04 C 581.37 186.77 581.37 188.23 581.37 188.96 C 574.64 189.03 567.90 188.99 561.16 189.00 C 561.17 180.00 561.17 171.00 561.16 162.00 Z" />
<path fill="#ffffff" opacity="1.00" d=" M 595.39 161.99 C 596.71 162.01 598.04 162.03 599.37 162.05 C 599.35 170.03 599.37 178.01 599.36 185.99 C 603.77 186.00 608.19 186.00 612.61 186.00 C 612.61 186.75 612.61 188.25 612.61 189.00 C 606.86 189.00 601.12 189.01 595.38 188.99 C 595.40 179.99 595.39 170.99 595.39 161.99 Z" />
<path fill="#ffffff" opacity="1.00" d=" M 613.42 189.05 C 616.93 180.06 620.29 171.01 623.73 162.00 C 625.20 162.01 626.67 162.03 628.15 162.05 C 631.64 171.07 635.29 180.02 638.82 189.03 C 637.26 188.99 635.70 188.95 634.15 188.90 C 633.18 186.26 632.20 183.62 631.20 181.00 C 627.69 181.00 624.19 181.00 620.69 180.99 C 619.74 183.60 618.82 186.22 617.97 188.86 C 616.45 188.93 614.93 188.99 613.42 189.05 M 625.92 165.83 C 624.83 169.99 623.33 174.03 621.70 178.01 C 624.47 178.00 627.24 178.00 630.02 177.96 C 628.64 173.92 627.01 169.96 625.92 165.83 Z" />
<path fill="#ffffff" opacity="1.00" d=" M 651.49 162.02 C 656.69 162.08 661.90 161.81 667.09 162.12 C 671.94 162.35 674.74 168.40 672.70 172.54 C 671.74 175.24 668.90 176.29 666.44 177.17 C 670.44 180.27 672.64 184.92 675.49 188.98 C 673.71 188.95 671.96 188.94 670.20 188.90 C 668.02 185.42 666.05 181.75 663.25 178.72 C 661.30 176.48 658.11 177.11 655.50 176.94 C 655.51 180.96 655.50 184.97 655.51 188.98 C 654.51 188.98 652.49 188.98 651.49 188.98 C 651.50 179.99 651.49 171.01 651.49 162.02 M 655.50 165.02 C 655.50 168.01 655.50 171.01 655.52 174.01 C 659.77 173.96 664.28 174.56 668.18 172.45 C 668.47 171.72 669.05 170.25 669.35 169.51 C 668.63 167.95 668.04 165.99 666.15 165.52 C 662.70 164.53 659.03 165.14 655.50 165.02 Z" />
<path fill="#ffffff" opacity="1.00" d=" M 678.16 162.00 C 684.65 162.00 691.13 161.99 697.62 162.01 C 697.62 162.76 697.61 164.25 697.61 164.99 C 692.35 165.00 687.09 165.00 681.84 165.00 C 681.83 168.00 681.83 171.00 681.84 174.00 C 686.76 174.00 691.69 173.99 696.62 174.01 C 696.62 174.75 696.62 176.24 696.63 176.98 C 691.69 177.01 686.76 177.00 681.84 177.00 C 681.83 180.00 681.83 183.00 681.84 186.00 C 687.34 186.01 692.86 185.97 698.37 186.04 C 698.37 186.77 698.37 188.23 698.37 188.96 C 691.64 189.03 684.90 188.99 678.16 189.00 C 678.16 180.00 678.17 171.00 678.16 162.00 Z" />
<path fill="#ffffff" opacity="1.00" d=" M 702.74 169.75 C 705.98 159.52 723.60 158.85 726.73 169.52 C 725.81 169.82 723.98 170.42 723.06 170.72 C 721.27 163.65 710.54 163.28 707.39 169.39 C 704.63 174.56 705.39 183.18 711.77 185.19 C 715.43 186.97 719.29 185.13 722.68 183.62 C 722.71 181.76 722.74 179.89 722.78 178.03 C 720.09 178.00 717.40 177.98 714.73 177.92 C 714.73 177.21 714.73 175.79 714.73 175.08 C 718.73 174.97 722.73 174.99 726.74 175.01 C 726.73 178.36 726.72 181.73 726.77 185.09 C 721.51 189.24 713.82 190.56 707.83 187.26 C 701.77 183.98 700.31 175.77 702.74 169.75 Z" />
<path fill="#ffffff" opacity="1.00" d=" M 731.73 162.11 C 733.05 162.06 734.39 162.01 735.73 161.96 C 735.73 170.99 735.73 180.01 735.73 189.04 C 734.39 188.99 733.05 188.94 731.73 188.89 C 731.75 179.96 731.75 171.04 731.73 162.11 Z" />
<path fill="#ffffff" opacity="1.00" d=" M 750.17 162.21 C 753.63 161.76 757.46 161.65 760.50 163.67 C 769.07 168.95 768.44 184.19 758.92 188.13 C 754.16 189.89 748.08 189.41 744.43 185.57 C 737.61 178.75 740.10 164.36 750.17 162.21 M 752.24 165.20 C 745.38 166.14 743.58 174.56 745.60 180.13 C 746.90 184.68 752.64 187.29 756.90 185.18 C 766.00 181.27 763.07 163.46 752.24 165.20 Z" />
<path fill="#ffffff" opacity="1.00" d=" M 770.63 162.00 C 772.07 162.03 773.52 162.05 774.97 162.09 C 779.35 169.03 784.05 175.77 788.32 182.78 C 788.20 175.84 788.29 168.90 788.27 161.96 C 789.59 162.01 790.93 162.06 792.27 162.11 C 792.24 171.04 792.24 179.98 792.27 188.91 C 790.78 188.94 789.30 188.98 787.83 189.01 C 783.51 181.96 778.52 175.33 774.53 168.09 C 774.69 175.06 774.57 182.04 774.61 189.02 C 773.61 189.00 771.62 188.96 770.63 188.94 C 770.65 179.96 770.63 170.98 770.63 162.00 Z" />
<path fill="#ffffff" opacity="1.00" d=" M 807.63 162.04 C 812.64 162.16 817.73 161.54 822.69 162.43 C 828.32 164.18 830.38 170.67 829.87 176.03 C 830.22 181.28 827.50 187.44 821.95 188.68 C 817.21 189.36 812.39 188.88 807.63 188.96 C 807.64 179.99 807.64 171.01 807.63 162.04 M 811.61 164.97 C 811.61 171.99 811.60 179.01 811.61 186.03 C 815.90 185.85 821.79 186.92 824.34 182.47 C 826.24 178.43 826.25 173.41 824.76 169.25 C 822.56 164.08 816.15 165.04 811.61 164.97 Z" />
<path fill="#ffffff" opacity="1.00" d=" M 834.26 162.01 C 840.75 162.00 847.25 161.99 853.75 162.01 C 853.74 162.76 853.74 164.25 853.74 164.99 C 848.57 165.00 843.41 165.00 838.26 165.00 C 838.25 168.00 838.25 171.00 838.26 174.00 C 843.08 174.00 847.91 173.99 852.74 174.01 C 852.74 174.75 852.74 176.25 852.74 176.99 C 847.91 177.00 843.08 177.00 838.26 177.00 C 838.25 180.00 838.25 183.00 838.26 186.00 C 843.67 186.00 849.09 185.99 854.51 186.02 C 854.51 186.76 854.51 188.24 854.51 188.98 C 847.76 189.01 841.01 189.00 834.26 189.00 C 834.27 180.00 834.27 171.00 834.26 162.01 Z" />
<path fill="#ffffff" opacity="1.00" d=" M 858.63 162.05 C 859.94 162.03 861.27 162.01 862.61 161.99 C 862.60 169.99 862.61 178.00 862.61 186.00 C 867.01 186.00 871.42 186.00 875.84 186.00 C 875.84 186.75 875.84 188.25 875.84 188.99 C 870.10 189.00 864.36 189.03 858.63 188.96 C 858.64 179.99 858.64 171.02 858.63 162.05 Z" />
<path fill="#ffffff" opacity="1.00" d=" M 889.63 162.04 C 894.60 162.20 899.69 161.45 904.59 162.50 C 909.77 164.25 910.18 171.64 906.23 174.90 C 907.93 176.23 909.90 177.58 910.29 179.90 C 911.10 183.92 908.28 188.38 904.08 188.81 C 899.27 189.24 894.44 188.93 889.63 188.96 C 889.64 179.99 889.64 171.01 889.63 162.04 M 893.61 164.98 C 893.60 167.99 893.60 171.00 893.61 174.02 C 896.60 173.92 899.72 174.36 902.63 173.43 C 906.04 172.42 906.05 166.63 902.68 165.57 C 899.73 164.70 896.62 165.05 893.61 164.98 M 893.61 176.99 C 893.60 179.99 893.60 183.00 893.61 186.00 C 897.09 185.81 900.86 186.66 904.12 185.08 C 906.91 183.68 906.87 179.03 903.93 177.85 C 900.66 176.52 897.03 177.11 893.61 176.99 Z" />
<path fill="#ffffff" opacity="1.00" d=" M 914.73 162.11 C 916.05 162.06 917.39 162.01 918.74 161.96 C 918.73 170.99 918.73 180.01 918.74 189.03 C 917.39 188.99 916.05 188.94 914.73 188.89 C 914.75 179.96 914.75 171.04 914.73 162.11 Z" />
<path fill="#ffffff" opacity="1.00" d=" M 933.15 162.21 C 936.59 161.76 940.42 161.65 943.46 163.64 C 952.07 168.89 951.45 184.18 941.93 188.12 C 937.36 189.80 931.62 189.48 927.92 186.04 C 920.52 179.44 922.84 164.44 933.15 162.21 M 935.27 165.20 C 928.46 166.10 926.60 174.43 928.55 179.99 C 929.80 184.64 935.65 187.33 939.96 185.15 C 945.18 182.90 946.24 175.91 944.50 171.05 C 943.47 167.13 939.22 164.46 935.27 165.20 Z" />
<path fill="#ffffff" opacity="1.00" d=" M 963.63 162.04 C 968.61 162.20 973.73 161.44 978.64 162.52 C 983.78 164.30 984.16 171.65 980.23 174.90 C 986.05 177.47 985.50 186.76 979.38 188.50 C 974.21 189.55 968.86 188.79 963.63 188.96 C 963.64 179.99 963.64 171.01 963.63 162.04 M 967.61 164.98 C 967.60 167.99 967.60 171.00 967.61 174.02 C 970.61 173.92 973.73 174.36 976.65 173.42 C 980.06 172.40 980.04 166.57 976.63 165.56 C 973.70 164.70 970.61 165.05 967.61 164.98 M 967.61 176.99 C 967.60 179.99 967.60 182.99 967.61 186.00 C 970.90 185.86 974.36 186.50 977.54 185.36 C 980.46 184.41 981.14 180.04 978.64 178.26 C 975.31 176.33 971.26 177.17 967.61 176.99 Z" />
<path fill="#ffffff" opacity="1.00" d=" M 988.73 162.11 C 990.05 162.06 991.39 162.01 992.74 161.96 C 992.73 170.99 992.73 180.01 992.74 189.04 C 991.39 188.99 990.05 188.94 988.73 188.89 C 988.75 179.96 988.75 171.04 988.73 162.11 Z" />
<path fill="#ffffff" opacity="1.00" d=" M 1007.13 162.21 C 1010.57 161.76 1014.40 161.65 1017.44 163.63 C 1026.06 168.87 1025.47 184.13 1015.97 188.11 C 1011.41 189.80 1005.65 189.49 1001.94 186.06 C 994.52 179.47 996.83 164.46 1007.13 162.21 M 1009.17 165.22 C 1002.36 166.19 1000.59 174.59 1002.60 180.13 C 1003.91 184.68 1009.64 187.28 1013.89 185.18 C 1019.17 182.95 1020.25 175.90 1018.49 171.01 C 1017.45 167.08 1013.13 164.41 1009.17 165.22 Z" />
</g>
<g id="#133d6aff">
<path fill="#133d6a" opacity="1.00" d=" M 6.53 184.03 C 48.68 183.95 90.84 184.04 132.99 183.98 L 133.61 183.97 C 139.24 183.96 144.87 184.01 150.50 184.03 C 149.20 188.15 145.42 191.16 141.01 190.97 C 101.33 191.08 61.64 190.92 21.96 191.05 C 17.95 190.95 13.44 191.61 9.98 189.10 C 8.16 187.96 7.47 185.83 6.53 184.03 Z" />
</g>
</svg>
